<mxfile host="app.diagrams.net" agent="Mozilla/5.0 (Windows NT 10.0; Win64; x64) AppleWebKit/537.36 (KHTML, like Gecko) Chrome/128.0.0.0 YaBrowser/24.10.0.0 Safari/537.36" version="24.8.6">
  <diagram name="Page-1" id="c9db0220-8083-56f3-ca83-edcdcd058819">
    <mxGraphModel dx="1235" dy="761" grid="1" gridSize="10" guides="1" tooltips="1" connect="1" arrows="1" fold="1" page="1" pageScale="1.5" pageWidth="826" pageHeight="1169" background="#ffffff" math="0" shadow="0">
      <root>
        <mxCell id="0" style=";html=1;" />
        <mxCell id="1" style=";html=1;" parent="0" />
        <mxCell id="AsuqOmMkcITjoCj8BU9A-4" value="" style="strokeWidth=1;shadow=0;dashed=0;align=center;html=1;shape=mxgraph.mockup.containers.browserWindow;rSize=0;strokeColor=#666666;strokeColor2=#008cff;strokeColor3=#c4c4c4;mainText=,;recursiveResize=0;" vertex="1" parent="1">
          <mxGeometry x="40" y="50" width="1030" height="780" as="geometry" />
        </mxCell>
        <mxCell id="AsuqOmMkcITjoCj8BU9A-5" value="Page 1" style="strokeWidth=1;shadow=0;dashed=0;align=center;html=1;shape=mxgraph.mockup.containers.anchor;fontSize=17;fontColor=#666666;align=left;whiteSpace=wrap;" vertex="1" parent="AsuqOmMkcITjoCj8BU9A-4">
          <mxGeometry x="60" y="12" width="110" height="26" as="geometry" />
        </mxCell>
        <mxCell id="AsuqOmMkcITjoCj8BU9A-6" value="" style="strokeWidth=1;shadow=0;dashed=0;align=center;html=1;shape=mxgraph.mockup.containers.anchor;rSize=0;fontSize=17;fontColor=#666666;align=left;" vertex="1" parent="AsuqOmMkcITjoCj8BU9A-4">
          <mxGeometry x="130" y="60" width="250" height="26" as="geometry" />
        </mxCell>
        <mxCell id="AsuqOmMkcITjoCj8BU9A-9" value="" style="shape=table;html=1;whiteSpace=wrap;startSize=0;container=1;collapsible=0;childLayout=tableLayout;strokeWidth=2;" vertex="1" parent="AsuqOmMkcITjoCj8BU9A-4">
          <mxGeometry x="290" y="170" width="430" height="130" as="geometry" />
        </mxCell>
        <mxCell id="AsuqOmMkcITjoCj8BU9A-10" value="" style="shape=tableRow;horizontal=0;startSize=0;swimlaneHead=0;swimlaneBody=0;top=0;left=0;bottom=0;right=0;collapsible=0;dropTarget=0;fillColor=none;points=[[0,0.5],[1,0.5]];portConstraint=eastwest;" vertex="1" parent="AsuqOmMkcITjoCj8BU9A-9">
          <mxGeometry width="430" height="36" as="geometry" />
        </mxCell>
        <mxCell id="AsuqOmMkcITjoCj8BU9A-11" value="" style="shape=partialRectangle;html=1;whiteSpace=wrap;connectable=0;fillColor=none;top=0;left=0;bottom=0;right=0;overflow=hidden;fontStyle=1" vertex="1" parent="AsuqOmMkcITjoCj8BU9A-10">
          <mxGeometry width="143" height="36" as="geometry">
            <mxRectangle width="143" height="36" as="alternateBounds" />
          </mxGeometry>
        </mxCell>
        <mxCell id="AsuqOmMkcITjoCj8BU9A-12" value="" style="shape=partialRectangle;html=1;whiteSpace=wrap;connectable=0;fillColor=none;top=0;left=0;bottom=0;right=0;overflow=hidden;fontStyle=1" vertex="1" parent="AsuqOmMkcITjoCj8BU9A-10">
          <mxGeometry x="143" width="144" height="36" as="geometry">
            <mxRectangle width="144" height="36" as="alternateBounds" />
          </mxGeometry>
        </mxCell>
        <mxCell id="AsuqOmMkcITjoCj8BU9A-19" style="shape=partialRectangle;html=1;whiteSpace=wrap;connectable=0;fillColor=none;top=0;left=0;bottom=0;right=0;overflow=hidden;fontStyle=1" vertex="1" parent="AsuqOmMkcITjoCj8BU9A-10">
          <mxGeometry x="287" width="143" height="36" as="geometry">
            <mxRectangle width="143" height="36" as="alternateBounds" />
          </mxGeometry>
        </mxCell>
        <mxCell id="AsuqOmMkcITjoCj8BU9A-13" value="" style="shape=tableRow;horizontal=0;startSize=0;swimlaneHead=0;swimlaneBody=0;top=0;left=0;bottom=0;right=0;collapsible=0;dropTarget=0;fillColor=none;points=[[0,0.5],[1,0.5]];portConstraint=eastwest;" vertex="1" parent="AsuqOmMkcITjoCj8BU9A-9">
          <mxGeometry y="36" width="430" height="46" as="geometry" />
        </mxCell>
        <mxCell id="AsuqOmMkcITjoCj8BU9A-14" value="" style="shape=partialRectangle;html=1;whiteSpace=wrap;connectable=0;fillColor=none;top=0;left=0;bottom=0;right=0;overflow=hidden;" vertex="1" parent="AsuqOmMkcITjoCj8BU9A-13">
          <mxGeometry width="143" height="46" as="geometry">
            <mxRectangle width="143" height="46" as="alternateBounds" />
          </mxGeometry>
        </mxCell>
        <mxCell id="AsuqOmMkcITjoCj8BU9A-15" value="" style="shape=partialRectangle;html=1;whiteSpace=wrap;connectable=0;fillColor=none;top=0;left=0;bottom=0;right=0;overflow=hidden;" vertex="1" parent="AsuqOmMkcITjoCj8BU9A-13">
          <mxGeometry x="143" width="144" height="46" as="geometry">
            <mxRectangle width="144" height="46" as="alternateBounds" />
          </mxGeometry>
        </mxCell>
        <mxCell id="AsuqOmMkcITjoCj8BU9A-20" style="shape=partialRectangle;html=1;whiteSpace=wrap;connectable=0;fillColor=none;top=0;left=0;bottom=0;right=0;overflow=hidden;" vertex="1" parent="AsuqOmMkcITjoCj8BU9A-13">
          <mxGeometry x="287" width="143" height="46" as="geometry">
            <mxRectangle width="143" height="46" as="alternateBounds" />
          </mxGeometry>
        </mxCell>
        <mxCell id="AsuqOmMkcITjoCj8BU9A-16" value="" style="shape=tableRow;horizontal=0;startSize=0;swimlaneHead=0;swimlaneBody=0;top=0;left=0;bottom=0;right=0;collapsible=0;dropTarget=0;fillColor=none;points=[[0,0.5],[1,0.5]];portConstraint=eastwest;" vertex="1" parent="AsuqOmMkcITjoCj8BU9A-9">
          <mxGeometry y="82" width="430" height="48" as="geometry" />
        </mxCell>
        <mxCell id="AsuqOmMkcITjoCj8BU9A-17" value="" style="shape=partialRectangle;html=1;whiteSpace=wrap;connectable=0;fillColor=none;top=0;left=0;bottom=0;right=0;overflow=hidden;" vertex="1" parent="AsuqOmMkcITjoCj8BU9A-16">
          <mxGeometry width="143" height="48" as="geometry">
            <mxRectangle width="143" height="48" as="alternateBounds" />
          </mxGeometry>
        </mxCell>
        <mxCell id="AsuqOmMkcITjoCj8BU9A-18" value="" style="shape=partialRectangle;html=1;whiteSpace=wrap;connectable=0;fillColor=none;top=0;left=0;bottom=0;right=0;overflow=hidden;" vertex="1" parent="AsuqOmMkcITjoCj8BU9A-16">
          <mxGeometry x="143" width="144" height="48" as="geometry">
            <mxRectangle width="144" height="48" as="alternateBounds" />
          </mxGeometry>
        </mxCell>
        <mxCell id="AsuqOmMkcITjoCj8BU9A-21" style="shape=partialRectangle;html=1;whiteSpace=wrap;connectable=0;fillColor=none;top=0;left=0;bottom=0;right=0;overflow=hidden;" vertex="1" parent="AsuqOmMkcITjoCj8BU9A-16">
          <mxGeometry x="287" width="143" height="48" as="geometry">
            <mxRectangle width="143" height="48" as="alternateBounds" />
          </mxGeometry>
        </mxCell>
      </root>
    </mxGraphModel>
  </diagram>
</mxfile>
